<?xml version="1.0" encoding="iso-8859-1"?>
<!-- Uploaded to: SVG Repo, www.svgrepo.com, Generator: SVG Repo Mixer Tools -->
<svg fill="#000000" height="800px" width="800px" version="1.1" id="Layer_1" xmlns="http://www.w3.org/2000/svg" xmlns:xlink="http://www.w3.org/1999/xlink" 
	 viewBox="0 0 512.002 512.002" xml:space="preserve">
<g>
	<g>
		<g>
			<path d="M434.515,25.992c2.701-3.971,2.199-9.301-1.196-12.697c-3.396-3.397-8.728-3.897-12.697-1.196
				c-17.634,12-106.074,72.335-115.475,81.734L22.068,376.912c-3.905,3.905-3.905,10.237,0,14.143l33.491,33.491
				c1.953,1.952,4.512,2.929,7.071,2.929c2.559,0,5.118-0.977,7.071-2.929l283.08-283.079
				C362.18,132.066,422.515,43.626,434.515,25.992z M62.63,403.332l-19.349-19.349l276.008-276.008
				c4.21-4.211,35.842-26.51,68.319-48.971c-22.461,32.478-44.76,64.109-48.971,68.319L62.63,403.332z"/>
			<path d="M499.903,91.38c2.702-3.971,2.199-9.301-1.196-12.697c-3.397-3.396-8.728-3.898-12.697-1.196
				c-17.634,12-106.074,72.335-115.475,81.734L87.455,442.3c-3.905,3.905-3.905,10.237,0,14.143l33.491,33.491
				c1.953,1.952,4.512,2.929,7.071,2.929c2.559,0,5.118-0.977,7.071-2.929l283.079-283.079
				C427.568,197.454,487.903,109.014,499.903,91.38z M128.018,468.72l-19.349-19.349l276.008-276.008
				c4.21-4.211,35.842-26.51,68.319-48.971c-22.461,32.478-44.76,64.109-48.971,68.319L128.018,468.72z"/>
			<path d="M268.361,55.884c2.56,0,5.118-0.977,7.071-2.929l35.884-35.884c3.905-3.905,3.905-10.237,0-14.143
				c-3.906-3.904-10.236-3.904-14.143,0l-35.884,35.884c-3.905,3.905-3.905,10.237,0,14.143
				C263.242,54.907,265.801,55.884,268.361,55.884z"/>
			<path d="M39.611,301.745c1.953,1.952,4.512,2.929,7.071,2.929c2.559,0,5.118-0.977,7.071-2.929
				c3.905-3.905,3.905-10.237,0-14.143l-6.485-6.484l201.849-201.85c3.905-3.905,3.905-10.237,0-14.143
				c-3.906-3.904-10.236-3.904-14.143,0L33.126,266.976l-8.08-8.08c-3.906-3.904-10.236-3.904-14.143,0
				c-3.905,3.905-3.905,10.237,0,14.143l8.08,8.08L2.93,297.172c-3.905,3.905-3.905,10.237,0,14.143
				c1.953,1.952,4.512,2.929,7.071,2.929s5.118-0.977,7.071-2.929l16.054-16.054L39.611,301.745z"/>
			<path d="M432.733,262.884l-201.85,201.849l-6.484-6.484c-3.905-3.902-10.235-3.904-14.143,0c-3.905,3.905-3.905,10.237,0,14.143
				l6.484,6.484l-16.054,16.054c-3.905,3.905-3.905,10.237,0,14.143c1.953,1.952,4.512,2.929,7.071,2.929s5.118-0.977,7.071-2.929
				l16.053-16.053l8.079,8.08c1.953,1.952,4.512,2.929,7.071,2.929s5.118-0.977,7.071-2.929c3.905-3.905,3.905-10.237,0-14.143
				l-8.079-8.08l201.85-201.849c3.905-3.905,3.905-10.237,0-14.143C442.969,258.979,436.639,258.979,432.733,262.884z"/>
			<path d="M509.073,200.686c-3.906-3.904-10.236-3.904-14.143,0l-35.884,35.884c-3.905,3.905-3.905,10.237,0,14.143
				c1.953,1.952,4.512,2.929,7.071,2.929s5.118-0.977,7.071-2.929l35.884-35.884C512.978,210.923,512.978,204.591,509.073,200.686z"
				/>
		</g>
	</g>
</g>
</svg>