<svg width="93" height="93" viewBox="0 0 93 93" fill="none" xmlns="http://www.w3.org/2000/svg">
<path d="M77 26H62.5V57H89L77 26Z" fill="white"/>
<path d="M77 91L89 57H62.5V26H54V85V91H77Z" fill="black"/>
<path d="M38.875 91H46.5H54V85H39.025L38.875 91Z" fill="black"/>
<path d="M5 57L16 91H31.25H38.875L39.025 85L40.5 26H32L31.25 57H5Z" fill="black"/>
<path d="M62.5 10H32C32 10 40.3611 19.7516 47 26C52.2721 19.7516 62.5 10 62.5 10Z" fill="black"/>
<path fill-rule="evenodd" clip-rule="evenodd" d="M32 26H16L5 57H31.25L32 26Z" fill="white"/>
<path d="M0 10C0 10 48.3333 10 32 10M32 10H62.5M32 10C32 10 40.3611 19.7516 47 26M32 10V0M93 10H62.5M62.5 10C62.5 10 52.2721 19.7516 47 26M62.5 10V0M47 26C44.5 26 40.5 26 40.5 26M47 26C48.9526 26 54 26 54 26M32 26L31.25 57H5M32 26H40.5M32 26H54M32 26H16M62.5 26H77M62.5 26V57H89M62.5 26H54M77 26L89 57M77 26H54M16 26L5 57M16 26H54M5 57L16 91H31.25H38.875M89 57L77 91H54M40.5 26L39.025 85M38.875 91H46.5H54M38.875 91L39.025 85M38.875 91H54M54 26V85M54 91V85M54 85H39.025" stroke="black" stroke-width="3"/>
</svg>
