
<?xml version="1.0" encoding="utf-8"?>
<!-- Generator: Adobe Illustrator 23.1.0, SVG Export Plug-In . SVG Version: 6.00 Build 0)  -->
<svg version="1.1" id="Слой_1" xmlns="http://www.w3.org/2000/svg" xmlns:xlink="http://www.w3.org/1999/xlink" x="0px" y="0px"
	 width="15px" height="56px" viewBox="0 0 15 56" style="enable-background:new 0 0 15 56;" xml:space="preserve">
<style type="text/css">
	.st0{display:none;}
	.st1{display:inline;fill:#353535;}
	.st2{fill:#353535;}
</style>
<g class="st0">
	<path class="st1" d="M5.8,44c-0.5,0.2-0.8,0.8-0.6,1.4C5.3,46,6,46.2,6.6,46c0.5-0.2,0.8-0.8,0.6-1.4C7,44.1,6.4,43.8,5.8,44z"/>
	<path class="st1" d="M11.9,50.6c-0.3,0-0.5,0.2-0.5,0.4l-0.1,1l-0.8,0.6l-1.4-2c-0.1-0.2-0.3-0.3-0.6-0.3H7v-0.5
		c0.1,0,0.2,0.1,0.2,0.1h0.1l1.5-0.5c0.3-0.1,0.5-0.4,0.4-0.6c-0.1-0.2-0.3-0.4-0.6-0.3l-1.2,0.3L7,48.2v-0.4c0-0.5-0.4-0.9-0.9-0.9
		c-0.8,0-0.9,0.7-0.9,0.9c0,0,0,3.3,0,3.4c0,0.4,0.3,0.7,0.7,0.7h2.2l1,1.7l-1.4,0.9c-0.2,0.1-0.3,0.4-0.1,0.6
		c0.1,0.1,0.2,0.2,0.4,0.2c0.1,0,0.2,0,0.3-0.1l3.7-2.4c0.1-0.1,0.2-0.2,0.2-0.3l0.1-1.3C12.3,50.9,12.1,50.6,11.9,50.6z"/>
	<path class="st1" d="M9.5,41.3c-0.1-0.2-0.4-0.4-0.6-0.3l-7.7,2.9C1,44,0.8,44.3,0.9,44.5c0.1,0.2,0.2,0.3,0.4,0.3
		c0.1,0,0.1,0,0.2,0l2.1-0.7v7.1c0,1.2,0.9,2.1,2.1,2.1h1.6c0.3,0,0.5-0.2,0.5-0.5s-0.2-0.5-0.5-0.5H5.8c-0.6,0-1.2-0.5-1.2-1.2
		v-7.6l4.7-1.8C9.5,41.8,9.7,41.6,9.5,41.3z"/>
</g>
<g id="Слой_2" class="st0">
	<path class="st1" d="M2.7,30.2c0.2,0.2,0.5,0.1,0.7,0c0.2-0.2,0.1-0.5,0-0.7l-1.3-1.2c-0.2-0.1-0.5-0.1-0.7,0
		c-0.1,0.2-0.1,0.5,0,0.7L2.7,30.2z"/>
	<path class="st1" d="M14.7,18.6l-6.9,6l0,0c-0.1,0.1-0.2,0.2-0.4,0.4l-0.1,0.4l-0.4-0.8c-0.1-0.4-0.4-0.7-0.8-0.8l-0.6-0.2
		c-0.6-0.2-1.2,0-1.4,0.6l-1.3,2.4c-0.4,0.7-0.2,1.6,0.4,2.2l1.2,1.2c0.1,0.1,0.1,0.2,0.1,0.4c0,0.1,0,0.2-0.1,0.4l-0.8,0.8l1.1,1.1
		l1.3-1.2c0.2-0.2,0.5-0.7,0.5-1.1c0-0.4-0.2-0.8-0.5-1.1l-1.2-1c0,0-0.1-0.1-0.1-0.2l1.4-1.2v0.2c0.1,0.2,0.2,0.5,0.5,0.6
		c0.2,0.1,0.5,0.1,0.7,0.1h0.1c0.2-0.1,0.5-0.2,0.6-0.5l0.8-1.4c0.1-0.4,0-0.7-0.2-1l6.5-5.6c0.1-0.1,0.1-0.2,0-0.4
		C14.9,18.5,14.7,18.5,14.7,18.6L14.7,18.6z M4.9,27l0.6-1c0-0.1,0.1-0.1,0.2-0.1S5.8,26,5.9,26l0,0L4.9,27z"/>
	<path class="st1" d="M4.7,20.7h3C7.8,20.7,8,20.9,8,21v0.5c0,0.1-0.1,0.2-0.2,0.2h-3c-0.1,0-0.2-0.1-0.2-0.2V21
		C4.5,20.9,4.6,20.7,4.7,20.7z"/>
	<path class="st1" d="M6.3,23.6c0.7,0,1.3-0.5,1.4-1.2h-3C4.9,23,5.6,23.6,6.3,23.6z"/>
	<path class="st1" d="M4.9,20.3h2.9c-0.1-0.5-0.5-0.8-1-1l0,0l0,0c0-0.2-0.2-0.5-0.5-0.5s-0.5,0.2-0.5,0.5l0,0l0,0
		C5.3,19.4,5,19.8,4.9,20.3z"/>
	<path class="st1" d="M11,33.5c0.7,0,1.2-0.6,1.2-1.2c0-0.1-0.1-0.2-0.2-0.2s-0.2,0.1-0.2,0.2c0,0.4-0.4,0.7-0.7,0.7H3.8l0.4-0.2
		l-1.1-1.1l-0.4,0.4c-0.2,0.2-0.2,0.7,0,1.1H0.3c-0.1,0-0.2,0.1-0.2,0.2c0,0.1,0.1,0.2,0.2,0.2H11V33.5z"/>
</g>
<g id="Слой_3">
	<circle class="st2" cx="4.8" cy="21.7" r="1.2"/>
	<path class="st2" d="M4.2,23.1h1.2c0.1,0,0.2,0.1,0.2,0.2v4.1c0,0.1-0.1,0.2-0.2,0.2H4.2c-0.1,0-0.2-0.1-0.2-0.2v-4.1
		C4,23.2,4.1,23.1,4.2,23.1z"/>
	<path class="st2" d="M4.2,27L5,26.8c0.1,0,0.1,0,0.2,0.1l0.7,4.4c0,0.1,0,0.1-0.1,0.2L5,31.6c-0.1,0-0.1,0-0.2-0.1l-0.7-4.4
		C4.1,27,4.1,27,4.2,27z"/>
	<path class="st2" d="M4.6,27.1l0.7-0.4c0.1,0,0.2,0,0.2,0.1l1.4,2.5c0,0.1,0,0.2-0.1,0.2l-0.7,0.4c-0.1,0-0.2,0-0.2-0.1l-1.4-2.5
		C4.5,27.2,4.5,27.1,4.6,27.1z"/>
	<path class="st2" d="M6,29.1l0.7,0c0.1,0,0.1,0.1,0.1,0.1l0,2.2c0,0.1-0.1,0.1-0.1,0.1l-0.7,0c-0.1,0-0.1-0.1-0.1-0.1l0-2.2
		C5.9,29.2,5.9,29.1,6,29.1z"/>
	<path class="st2" d="M4.4,23.9l0.1-0.6c0-0.1,0.1-0.1,0.1-0.1l4.3,0.5C9,23.7,9,23.8,9,23.8l-0.1,0.6c0,0.1-0.1,0.1-0.1,0.1L4.5,24
		C4.5,24,4.4,23.9,4.4,23.9z"/>
	<path class="st2" d="M5.7,28.2l5.9-9.8c0,0,0.1,0,0.1,0l0.3,0.2c0,0,0,0.1,0,0.1l-5.9,9.8c0,0-0.1,0-0.1,0L5.7,28.2
		C5.7,28.2,5.7,28.2,5.7,28.2z"/>
	<path class="st2" d="M1.4,33.3l-0.2-0.6c0-0.1,0-0.1,0.1-0.1l9.9-3c0.1,0,0.1,0,0.1,0.1l0.2,0.6c0,0.1,0,0.1-0.1,0.1l-9.9,3
		C1.4,33.4,1.4,33.4,1.4,33.3z"/>
	<path class="st2" d="M11.5,29.5L11.5,29.5c0.2,0.1,0.3,0.4,0.1,0.6l-0.1,0.1c-0.1,0.2-0.4,0.3-0.6,0.1l0,0
		c-0.2-0.1-0.3-0.4-0.1-0.6l0.1-0.1C11.1,29.4,11.4,29.3,11.5,29.5z"/>
	<path class="st2" d="M11.2,29.1L11.2,29.1c0.2-0.1,0.4,0.1,0.5,0.3l0.1,0.2c0.1,0.2-0.1,0.4-0.3,0.5l0,0c-0.2,0.1-0.4-0.1-0.5-0.3
		l-0.1-0.2C10.8,29.4,11,29.2,11.2,29.1z"/>
</g>
<g>
	<g>
		<path class="st2" d="M11.7,4.5c-0.1-0.3-0.4-0.6-0.7-0.6H3.7C3.4,3.8,3.1,4.2,3,4.5L2.2,8.7c0,0.1,0,0.3,0,0.4L3,11.7
			c0.1,0.2,0.4,0.5,0.7,0.5H11c0.3,0,0.6-0.2,0.7-0.5l0.8-2.6c0-0.1,0-0.3,0-0.4L11.7,4.5z M5.3,8.7H3.5L4.3,5h0.9V8.7L5.3,8.7z
			 M8.1,11H6.6V5h1.5V11z M9.5,8.7V5h0.9l0.8,3.7H9.5z"/>
		<path class="st2" d="M10,1.3c0-0.1,0-0.1,0-0.2c0-0.3-0.2-0.5-0.6-0.5c-0.3,0-0.5,0.2-0.5,0.6c0,0.1,0,0.1,0,0.2H7.9
			c0-0.1,0-0.1,0-0.2c0-0.4-0.2-0.6-0.6-0.6C7,0.6,6.8,0.8,6.8,1.2c0,0.1,0,0.1,0,0.2H5.9c0-0.1,0-0.1,0-0.2c0-0.4-0.2-0.6-0.6-0.6
			S4.8,0.8,4.8,1.2c0,0.1,0,0.1,0,0.2H1.4v0.9h5.2L6.4,3.4h1.8L8.1,2.2h5.2V1.3H10z"/>
	</g>
</g>
<g>
	<title>Layer 1</title>
	<g id="layer1">
		<path id="path5182" class="st2" d="M13.2,51.5c0.6-0.2,0.9-0.8,0.7-1.4l-0.4,0.1c0.1,0.3-0.1,0.7-0.4,0.8l-11,3.7l0.1,0.4
			L13.2,51.5z"/>
		<path id="path5184" class="st2" d="M3.1,45c0.6-0.2,0.9-0.8,0.8-1.4c-0.2-0.6-0.8-0.9-1.4-0.8c-0.6,0.2-1,0.8-0.8,1.4
			C1.9,44.8,2.5,45.2,3.1,45"/>
		<path id="path5186" class="st2" d="M2.7,46.6c-0.6-1.1,1.1-2.1,1.8-1L5.7,48L8,47.3C8.4,47.2,9,47.6,9,48.1l0,3.4
			c0,0.8-1.2,0.8-1.2,0c0-0.8,0-2.4,0-2.4l-2.5,0.7c-0.5,0.2-1-0.1-1.2-0.5L2.7,46.6z"/>
		<path id="path5188" class="st2" d="M6.5,47.1V40H6v7.2L6.5,47.1z"/>
		<path id="path5190" class="st2" d="M1.5,48.1c-0.3-0.7,0.5-1.1,0.9-0.4l1.1,2.1c0.2,0.4,0.7,0.7,1.2,0.7c0.2,0,0.3,0,0.5-0.1
			L6.5,50c0.7-0.2,1,0.7,0.3,0.9l-1.4,0.4c-0.2,0.1-0.4,0.1-0.7,0.1c-0.9,0-1.7-0.5-2.1-1.3L1.5,48.1z"/>
	</g>
</g>
</svg>
